<svg width="48" height="38" viewBox="0 0 48 38" fill="none" xmlns="http://www.w3.org/2000/svg">
<path d="M34.2857 15.7143C34.2857 16.6518 33.5089 17.4286 32.5714 17.4286C25.9821 17.4286 21.8304 19.1696 16.9821 23.5357C15.6964 24.7411 14.5179 26.0268 13.2054 27.2054C12.8571 27.5268 12.4821 27.7143 12 27.7143C11.0625 27.7143 10.2857 26.9375 10.2857 26C10.2857 25.5179 10.4732 25.1429 10.7946 24.7946C16.9821 17.9643 23.0893 14 32.5714 14C33.5089 14 34.2857 14.7768 34.2857 15.7143ZM48 10.4107C48 8.13393 47.0089 0.285712 43.9821 0.285712C41.7321 0.285712 41.0089 1.54464 39.5357 2.91071C35.8125 6.44643 24.1339 4.33035 18.6429 6.15178C11.0357 8.66964 4.25893 14.75 4.25893 23.2679C4.25893 24.2054 4.33929 25.1429 4.5 26.0536C4.60714 26.5893 5.30357 28.0089 5.30357 28.25C5.30357 29.8036 0 31.9732 0 34.7589C0 35.3214 0.1875 35.4821 0.428571 35.9375C1.15179 37.1696 1.66071 38 3.34821 38C5.67857 38 7.28571 32.5357 8.625 32.5357C9.69643 32.5357 12.2679 34.2232 13.5536 34.6518C15.9911 35.4821 18.6429 35.9107 21.2143 35.9107C25.2857 35.9107 29.3304 34.8393 32.9464 33.0179C40.3929 29.3214 45.75 23.9107 47.4643 15.5804C47.8125 13.8661 48 12.125 48 10.4107Z" fill="#3D3E42"/>
</svg>
