<svg width="48" height="42" viewBox="0 0 48 42" fill="none" xmlns="http://www.w3.org/2000/svg">
<path d="M17.1429 7.71428V4.28571H30.8571V7.71428H17.1429ZM48 24.8571H30V29.1429C30 30.0804 29.2232 30.8571 28.2857 30.8571H19.7143C18.7768 30.8571 18 30.0804 18 29.1429V24.8571H0V37.7143C0 40.0714 1.92857 42 4.28571 42H43.7143C46.0714 42 48 40.0714 48 37.7143V24.8571ZM27.4286 24.8571H20.5714V28.2857H27.4286V24.8571ZM48 12C48 9.64285 46.0714 7.71428 43.7143 7.71428H34.2857V3.42857C34.2857 2.00893 33.1339 0.85714 31.7143 0.85714H16.2857C14.8661 0.85714 13.7143 2.00893 13.7143 3.42857V7.71428H4.28571C1.92857 7.71428 0 9.64285 0 12V22.2857H48V12Z" fill="#5DCA88"/>
</svg>
