<svg width="45" height="44" viewBox="0 0 45 44" fill="none" xmlns="http://www.w3.org/2000/svg">
<path d="M24 21.0357C23.4375 20.8482 22.875 20.7411 22.2857 20.7411C21.6964 20.7411 21.1339 20.8482 20.5714 21.0357V36.5714C20.5714 38.3661 18.9375 40 17.1429 40C15.3482 40 13.7143 38.3661 13.7143 36.5714C13.7143 35.6339 12.9375 34.8571 12 34.8571C11.0625 34.8571 10.2857 35.6339 10.2857 36.5714C10.2857 40.2946 13.4196 43.4286 17.1429 43.4286C20.8661 43.4286 24 40.2946 24 36.5714V21.0357ZM44.5714 21.7589C44.5714 21.6786 44.5714 21.625 44.5446 21.5714C42.1339 11.4464 32.25 5.71428 22.2857 5.71428C12.2679 5.71428 2.49107 11.4464 0.0267857 21.5714C0 21.625 0 21.6786 0 21.7589C0 22.2143 0.401786 22.6161 0.857143 22.6161C1.09821 22.6161 1.28571 22.5089 1.47321 22.3482C3.02679 20.9018 4.47321 19.8839 6.69643 19.8839C9.24107 19.8839 11.4375 21.4643 12.8839 23.4732C13.2054 23.9286 13.4464 24.4107 13.7411 24.8661C13.9286 25.1607 14.1429 25.3214 14.4911 25.3214C14.8661 25.3214 15.0804 25.1607 15.2679 24.8661C15.5625 24.4107 15.8036 23.9286 16.125 23.4732C17.5714 21.4643 19.7411 19.8839 22.2857 19.8839C24.8304 19.8839 27 21.4643 28.4464 23.4732C28.7679 23.9286 29.0089 24.4107 29.3036 24.8661C29.4911 25.1607 29.7054 25.3214 30.0804 25.3214C30.4286 25.3214 30.6429 25.1607 30.8304 24.8661C31.125 24.4107 31.3661 23.9286 31.6875 23.4732C33.1339 21.4643 35.3304 19.8839 37.875 19.8839C40.0982 19.8839 41.5446 20.9018 43.0982 22.3482C43.2857 22.5089 43.4732 22.6161 43.7143 22.6161C44.1696 22.6161 44.5714 22.2143 44.5714 21.7589ZM24 2.28571C24 1.34821 23.2232 0.571427 22.2857 0.571427C21.3482 0.571427 20.5714 1.34821 20.5714 2.28571V4.91071C21.1339 4.88393 21.7232 4.85714 22.2857 4.85714C22.8482 4.85714 23.4375 4.88393 24 4.91071V2.28571Z" fill="#3D3E42"/>
</svg>
