<svg width="45" height="44" viewBox="0 0 45 44" fill="none" xmlns="http://www.w3.org/2000/svg">
<path d="M38.5714 8.85714C38.5714 10.2768 37.4196 11.4286 36 11.4286C34.5804 11.4286 33.4286 10.2768 33.4286 8.85714C33.4286 7.4375 34.5804 6.28571 36 6.28571C37.4196 6.28571 38.5714 7.4375 38.5714 8.85714ZM44.5714 1.14285C44.5714 0.660712 44.1429 0.285712 43.6607 0.285712C34.3393 0.285712 29.2232 2.42857 22.5268 9.09821C21 10.6518 19.4196 12.4196 17.8125 14.3214L7.66071 14.8571C7.39286 14.8839 7.125 15.0446 6.96429 15.2857L0.964286 25.5714C0.776786 25.8929 0.830357 26.3214 1.09821 26.6161L2.8125 28.3304C2.97321 28.4911 3.21429 28.5714 3.42857 28.5714C3.50893 28.5714 3.58929 28.5714 3.66964 28.5446L11.0625 26.2679L18.5893 33.7946L16.3125 41.1875C16.2321 41.4821 16.3125 41.8036 16.5268 42.0446L18.2411 43.7589C18.4286 43.9196 18.6429 44 18.8571 44C19.0179 44 19.1518 43.9732 19.2857 43.8929L29.5714 37.8929C29.8125 37.7321 29.9732 37.4643 30 37.1964L30.5357 27.0446C32.4375 25.4375 34.2054 23.8571 35.7589 22.3304C42.1071 15.9554 44.5714 10.0357 44.5714 1.14285Z" fill="#3D3E42"/>
</svg>
