<svg width="220" height="189" viewBox="0 0 220 189" fill="none" xmlns="http://www.w3.org/2000/svg">
<path d="M78.5714 31.8571V16.1428H141.429V31.8571H78.5714ZM220 110.429H137.5V130.071C137.5 134.368 133.94 137.929 129.643 137.929H90.3571C86.0603 137.929 82.5 134.368 82.5 130.071V110.429H0V169.357C0 180.161 8.83929 189 19.6429 189H200.357C211.161 189 220 180.161 220 169.357V110.429ZM125.714 110.429H94.2857V126.143H125.714V110.429ZM220 51.5C220 40.6964 211.161 31.8571 200.357 31.8571H157.143V12.2143C157.143 5.70758 151.864 0.428556 145.357 0.428556H74.6429C68.1362 0.428556 62.8571 5.70758 62.8571 12.2143V31.8571H19.6429C8.83929 31.8571 0 40.6964 0 51.5V98.6429H220V51.5Z" fill="#5DCA88"/>
</svg>
