<svg width="16" height="17" viewBox="0 0 16 17" fill="none" xmlns="http://www.w3.org/2000/svg">
<path d="M12.8571 11.5547C12.8571 11.8158 12.7366 12.3281 12.6362 12.5692C12.3348 13.2321 11.0692 13.7143 10.3761 13.7143C9.70312 13.7143 9.0904 13.4431 8.46763 13.2121C6.26786 12.4085 3.87723 10.0179 3.07366 7.81808C2.84263 7.19531 2.57143 6.58259 2.57143 5.9096C2.57143 5.21652 3.05357 3.95089 3.71652 3.64955C3.95759 3.54911 4.46987 3.42857 4.73103 3.42857C4.78125 3.42857 4.84152 3.42857 4.89174 3.44866C5.07254 3.50893 5.81585 4.97545 5.97656 5.2567C6.08705 5.44754 6.30804 5.67857 6.30804 5.9096C6.30804 6.35156 4.99219 7.00446 4.99219 7.39621C4.99219 7.5971 5.17299 7.84821 5.27344 8.02902C6.01674 9.35491 6.9308 10.269 8.2567 11.0123C8.4375 11.1127 8.68862 11.2935 8.88951 11.2935C9.28125 11.2935 9.93415 9.97768 10.3761 9.97768C10.6071 9.97768 10.8382 10.1987 11.029 10.3092C11.3103 10.4699 12.7768 11.2132 12.8371 11.394C12.8571 11.4442 12.8571 11.5045 12.8571 11.5547ZM15.4286 3.75C15.4286 2.1529 14.1328 0.857142 12.5357 0.857142H2.89286C1.29576 0.857142 0 2.1529 0 3.75V13.3929C0 14.99 1.29576 16.2857 2.89286 16.2857H12.5357C14.1328 16.2857 15.4286 14.99 15.4286 13.3929V3.75Z" fill="#3D3E43"/>
</svg>
