<svg width="18" height="15" viewBox="0 0 18 15" fill="none" xmlns="http://www.w3.org/2000/svg">
<path d="M16.7143 12.6786C16.7143 12.8493 16.5636 13 16.3929 13H1.60714C1.43638 13 1.28571 12.8493 1.28571 12.6786V4.96429C1.49665 5.20536 1.72768 5.42634 1.97879 5.62723C3.41518 6.73214 4.86161 7.85714 6.25781 9.02232C7.01116 9.65513 7.94531 10.4286 8.98996 10.4286H9H9.01005C10.0547 10.4286 10.9888 9.65513 11.7422 9.02232C13.1384 7.85714 14.5848 6.73214 16.0212 5.62723C16.2723 5.42634 16.5033 5.20536 16.7143 4.96429V12.6786ZM16.7143 2.12165C16.7143 2.97545 15.8906 4.0904 15.2377 4.60268C13.8917 5.65737 12.5458 6.7221 11.2098 7.78683C10.6775 8.21875 9.71317 9.14286 9.01005 9.14286H9H8.98996C8.28683 9.14286 7.32254 8.21875 6.79018 7.78683C5.45424 6.7221 4.10826 5.65737 2.76228 4.60268C1.85826 3.88951 1.28571 2.89509 1.28571 1.75C1.28571 1.57924 1.43638 1.42857 1.60714 1.42857H16.3929C16.7746 1.42857 16.7143 1.87054 16.7143 2.12165ZM18 1.75C18 0.866071 17.2768 0.142857 16.3929 0.142857H1.60714C0.723214 0.142857 0 0.866071 0 1.75V12.6786C0 13.5625 0.723214 14.2857 1.60714 14.2857H16.3929C17.2768 14.2857 18 13.5625 18 12.6786V1.75Z" fill="#3D3E43"/>
</svg>
