<svg width="36" height="29" viewBox="0 0 36 29" fill="none" xmlns="http://www.w3.org/2000/svg">
<path d="M36 9.40625C35.3973 10.0692 34.7143 10.6518 33.9911 11.154C30.6362 13.4241 27.2612 15.7143 23.9866 18.0848C22.2991 19.3304 20.2098 20.8571 18.0201 20.8571H18H17.9799C15.7902 20.8571 13.7009 19.3304 12.0134 18.0848C8.73884 15.6942 5.36384 13.4241 2.02902 11.154C1.28571 10.6518 0.602679 10.0692 0 9.40625V25.3571C0 27.125 1.44643 28.5714 3.21429 28.5714H32.7857C34.5536 28.5714 36 27.125 36 25.3571V9.40625ZM36 3.5C36 1.73214 34.5335 0.285714 32.7857 0.285714H3.21429C1.06473 0.285714 0 1.97321 0 3.94196C0 5.77009 2.02902 8.04018 3.45536 9.00446C6.5692 11.1741 9.72321 13.3437 12.8371 15.5335C14.1429 16.4375 16.3527 18.2857 17.9799 18.2857H18H18.0201C19.6473 18.2857 21.8571 16.4375 23.1629 15.5335C26.2768 13.3437 29.4308 11.1741 32.5647 9.00446C34.3326 7.77902 36 5.75 36 3.5Z" fill="#5DCA88"/>
</svg>
